<svg xmlns="http://www.w3.org/2000/svg">
  <symbol id="heart" viewBox="0 0 18 16" fill="none">
    <path d="M12.4709 0.0535018C11.1978 0.228562 9.92258 0.8312 9 1.80891C8.07742 0.8312 6.8022 0.228562 5.52915 0.0535018C3.91335 -0.168691 2.1499 0.284246 1.05884 1.73088C-0.352945 3.60276 -0.352949 6.25395 1.05884 8.12583L5.75286 14.3496C7.41251 16.5501 10.5875 16.5501 12.2471 14.3496L16.9412 8.12584C18.3529 6.25396 18.3529 3.60276 16.9412 1.73088C15.8501 0.284246 14.0867 -0.168691 12.4709 0.0535018Z" fill="#008BFE"/>
  </symbol>

  <symbol id="cross" viewBox="0 0 24 24" fill="none">
    <path fill-rule="evenodd" clip-rule="evenodd" d="M15.461 14.389L14.4 15.45L11.999 13.051L9.599 15.447L8.539 14.386L10.938 11.991L8.539 9.593L9.6 8.532L12 10.931L14.401 8.534L15.461 9.596L13.061 11.991L15.461 14.389ZM12 2.25C6.624 2.25 2.25 6.624 2.25 12C2.25 17.376 6.624 21.75 12 21.75C17.376 21.75 21.75 17.376 21.75 12C21.75 6.624 17.376 2.25 12 2.25Z" fill="#D00303"/>
  </symbol>

  <symbol id="tick" viewBox="0 0 24 24" fill="none">
    <path fill-rule="evenodd" clip-rule="evenodd" d="M12.4693 15.308L12.2543 15.689H11.4143L11.1613 15.353C11.1463 15.33 9.6593 13.108 7.7373 11.892L7.1023 11.492L7.9043 10.224L8.5373 10.624C9.92231 11.499 11.0723 12.777 11.7503 13.63C12.8153 12.025 15.3093 8.682 19.1343 5.971C17.3473 3.709 14.5863 2.25 11.4873 2.25C6.1113 2.25 1.7373 6.624 1.7373 12C1.7373 17.376 6.1113 21.75 11.4873 21.75C16.8633 21.75 21.2373 17.376 21.2373 12C21.2373 10.263 20.7753 8.635 19.9763 7.221C15.1433 10.667 12.4983 15.257 12.4693 15.308Z" fill="#09BB00"/>
  </symbol>

  <symbol id="success" viewBox="0 0 36 36" fill="none">
    <path fill-rule="evenodd" clip-rule="evenodd" d="M19.8129 24.1071L19.416 24.8105H17.8652L17.3982 24.1902C17.3705 24.1477 14.6252 20.0455 11.0769 17.8006L9.90462 17.0622L11.3852 14.7212L12.5538 15.4597C15.1108 17.0751 17.2338 19.4345 18.4855 21.0092C20.4517 18.0462 25.056 11.8745 32.1175 6.86954C28.8185 2.69354 23.7212 0 18 0C8.07508 0 0 8.07508 0 18C0 27.9249 8.07508 36 18 36C27.9249 36 36 27.9249 36 18C36 14.7932 35.1471 11.7877 33.672 9.17723C24.7495 15.5391 19.8665 24.0129 19.8129 24.1071Z" fill="#09BB00"/>
  </symbol>

  <symbol id="fail" viewBox="0 0 36 36" fill="none">
    <path fill-rule="evenodd" clip-rule="evenodd" d="M26.422 24.278L24.3 26.4L19.498 21.602L14.698 26.394L12.578 24.272L17.376 19.482L12.578 14.686L14.7 12.564L19.5 17.362L24.302 12.568L26.422 14.692L21.622 19.482L26.422 24.278ZM19.5 0C8.748 0 0 8.748 0 19.5C0 30.252 8.748 39 19.5 39C30.252 39 39 30.252 39 19.5C39 8.748 30.252 0 19.5 0Z" fill="#D00303"/>
  </symbol>
</svg>